<svg width="30" height="30" viewBox="0 0 30 30" fill="none" xmlns="http://www.w3.org/2000/svg">
<g clip-path="url(#clip0_565_50)">
<path d="M14.389 0.75H16.1791C16.2606 0.766363 16.3405 0.785702 16.4227 0.798347C17.1037 0.900247 17.7951 0.955287 18.464 1.10851C25.9781 2.83337 30.7475 10.1605 29.1951 17.6788C27.2995 26.8587 17.1986 31.773 8.69344 27.3979C8.58357 27.3414 8.42361 27.3228 8.30402 27.3533C6.5281 27.8063 4.75516 28.2712 2.98148 28.7331C2.32896 28.9026 1.67645 29.0715 0.987305 29.25C1.01645 29.1265 1.0329 29.0469 1.05457 28.9681C1.6757 26.7077 2.29981 24.4488 2.91122 22.1854C2.94934 22.0441 2.92916 21.8515 2.85965 21.7235C1.17491 18.6122 0.686085 15.3239 1.41858 11.8682C2.59505 6.32028 7.22322 1.91404 12.8447 0.965701C13.3567 0.87942 13.874 0.821404 14.389 0.75ZM4.39116 25.8791C4.51449 25.8538 4.59372 25.8412 4.67145 25.8211C5.96826 25.4842 7.26583 25.1509 8.55965 24.8043C8.7652 24.7493 8.92365 24.7709 9.10603 24.8817C10.9246 25.9907 12.9045 26.5842 15.0362 26.6199C17.8691 26.6675 20.4395 25.8471 22.6265 24.0509C26.073 21.22 27.5193 17.5494 26.949 13.1387C26.6515 10.8366 25.6798 8.79861 24.1035 7.0849C21.2378 3.9684 17.6657 2.68982 13.4718 3.2856C10.5949 3.69394 8.19415 5.06476 6.31732 7.27383C4.03986 9.95447 3.15414 13.0665 3.61008 16.5437C3.83357 18.25 4.44572 19.8254 5.39124 21.2668C5.53251 21.4825 5.55867 21.67 5.48616 21.9117C5.27763 22.6131 5.08852 23.3205 4.89419 24.0263C4.72826 24.6303 4.56531 25.235 4.39041 25.8791H4.39116Z" fill="white"/>
<path d="M10.7224 8.36944C11.336 8.21845 11.6155 8.6149 11.8278 9.16679C12.144 9.98794 12.4945 10.7964 12.8428 11.605C12.9475 11.8474 12.9684 12.0787 12.8167 12.2915C12.5371 12.6827 12.2494 13.0695 11.9444 13.4406C11.7015 13.7359 11.6709 13.8787 11.8674 14.2112C13.0163 16.1473 14.6315 17.5427 16.7348 18.3727C17.0622 18.5022 17.2236 18.4702 17.4501 18.1994C17.8074 17.7718 18.1572 17.3374 18.504 16.9008C18.7551 16.5847 18.9091 16.5058 19.2701 16.6702C20.2687 17.1247 21.2583 17.5977 22.239 18.0894C22.363 18.1518 22.4796 18.3683 22.4796 18.5133C22.4781 19.5033 22.2038 20.3587 21.3114 20.9545C20.1058 21.7592 18.8426 21.8135 17.4912 21.4283C14.112 20.465 11.6275 18.3356 9.63108 15.5463C9.01594 14.6872 8.46433 13.8006 8.21319 12.763C7.83573 11.1981 8.22739 9.8496 9.38592 8.72275C9.74544 8.37316 10.1872 8.31812 10.7201 8.3687L10.7224 8.36944Z" fill="white"/>
</g>
<defs>
<clipPath id="clip0_565_50">
<rect width="28.5" height="28.5" fill="white" transform="translate(0.988281 0.75)"/>
</clipPath>
</defs>
</svg>
